<svg width="1135" height="400" viewBox="0 0 1135 400" fill="none" xmlns="http://www.w3.org/2000/svg">
<g clip-path="url(#clip0_1_1022)">
<rect width="400" height="400" rx="80" fill="#EADDFF"/>
<path d="M141.878 34.8838C50.1057 94.9777 23.9063 185.589 -18.3856 418.835C-22.8371 478.478 -12.9444 530.483 21 563.5C5.99996 477 13.5 387 41 332C41 390.774 16.6364 482.418 35 516.5C40.2614 511.2 51.0478 504.033 56 495.5C46.0336 538.524 32.3538 587.16 45.9395 600.427C80.4407 611.077 108.49 555.695 115.168 433.214C120.636 374.954 116.074 312.124 114.154 264.935C113.143 240.091 112.865 219.581 115.168 206.357C119.063 222.333 124.071 234.581 131.306 245.764C144.661 211.15 147.365 178.262 151.452 146.408C155.538 173.6 157.173 193.023 164.694 203.695C170.481 193.044 172.67 180.796 173.041 176.003C175.823 203.695 186.396 221.801 195.856 234.581C209.212 219.67 223.68 181.861 223.68 140.857C232.583 158.962 238.148 182.394 238.148 211.15C244.353 196.894 246.398 185.634 244.826 153.637C255.87 181.272 258.614 196.382 259.294 222.866C272.96 198.31 276.964 182.209 270.98 145.117C282.598 163.809 288.907 176.3 299.36 206.357C304.551 191.722 306.243 183.128 304.925 166.418C315.498 189.316 318.28 197.304 323.288 222.866C325.172 247.588 326.651 270.649 327.72 292.094C333.285 403.686 319.846 465.431 303.5 503.5C282.25 594.4 356.596 618 392.291 618C365.58 583.386 352.781 560.487 367.249 509.897C406.202 387.949 406.5 365.583 406.5 264.935C403.161 215.41 396.742 171.743 370.032 97.1895C328.296 8.2576 230.731 -8.38339 141.878 34.8838Z" fill="#091023"/>
<path fill-rule="evenodd" clip-rule="evenodd" d="M131.306 245.764C124.071 234.581 119.063 222.333 115.168 206.357C112.865 219.581 113.143 240.091 114.154 264.935C132.76 302.156 143.955 321.739 169.702 346.944C185.773 359.437 199.532 368.442 211.995 373.725C242.034 386.458 264.551 377.566 293.795 343.749C298.858 337.894 303.282 332.499 307.458 326.75C314.298 317.335 320.477 306.973 327.72 292.094C326.651 270.649 325.172 247.588 323.288 222.866C318.28 197.304 315.498 189.316 304.925 166.418C306.243 183.128 304.551 191.722 299.36 206.357C288.907 176.3 282.598 163.809 270.98 145.117C276.964 182.209 272.96 198.31 259.294 222.866C258.614 196.382 255.87 181.272 244.826 153.637C246.398 185.634 244.353 196.894 238.148 211.15C238.148 182.394 232.583 158.962 223.68 140.857C223.68 181.861 209.212 219.67 195.856 234.581C186.396 221.801 175.823 203.695 173.041 176.003C172.67 180.796 170.481 193.044 164.694 203.695C157.173 193.023 155.538 173.6 151.452 146.408C147.365 178.262 144.661 211.15 131.306 245.764Z" fill="#CCC2DC"/>
<path d="M293.795 343.749C264.551 377.566 242.034 386.458 211.995 373.725V419.968C240.577 433.862 261.266 435.183 307.458 411.11V326.75C303.282 332.499 298.858 337.894 293.795 343.749Z" fill="#958DA5"/>
<path d="M114.154 264.935C116.074 312.124 120.636 374.954 115.168 433.214C108.49 555.695 80.4407 611.077 45.9395 600.427C32.3538 587.16 46.0336 538.524 56 495.5C51.0478 504.033 40.2614 511.2 35 516.5C16.6364 482.418 41 390.774 41 332C13.5 387 5.99996 477 21 563.5C-12.9444 530.483 -22.8371 478.478 -18.3856 418.835C23.9063 185.589 50.1057 94.9777 141.878 34.8838C230.731 -8.38339 328.296 8.2576 370.032 97.1895C396.742 171.743 403.161 215.41 406.5 264.935C406.5 365.583 406.202 387.949 367.249 509.897C352.781 560.487 365.58 583.386 392.291 618C356.596 618 282.25 594.4 303.5 503.5C319.846 465.431 333.285 403.686 327.72 292.094M114.154 264.935C113.143 240.091 112.865 219.581 115.168 206.357C119.063 222.333 124.071 234.581 131.306 245.764C144.661 211.15 147.365 178.262 151.452 146.408C155.538 173.6 157.173 193.023 164.694 203.695C170.481 193.044 172.67 180.796 173.041 176.003C175.823 203.695 186.396 221.801 195.856 234.581C209.212 219.67 223.68 181.861 223.68 140.857C232.583 158.962 238.148 182.394 238.148 211.15C244.353 196.894 246.398 185.634 244.826 153.637C255.87 181.272 258.614 196.382 259.294 222.866C272.96 198.31 276.964 182.209 270.98 145.117C282.598 163.809 288.907 176.3 299.36 206.357C304.551 191.722 306.243 183.128 304.925 166.418C315.498 189.316 318.28 197.304 323.288 222.866C325.172 247.588 326.651 270.649 327.72 292.094M114.154 264.935C132.76 302.156 143.955 321.739 169.702 346.944C185.773 359.437 199.532 368.442 211.995 373.725M327.72 292.094C320.477 306.973 314.298 317.335 307.458 326.75M211.995 373.725C242.034 386.458 264.551 377.566 293.795 343.749C298.858 337.894 303.282 332.499 307.458 326.75M211.995 373.725V419.968C240.577 433.862 261.266 435.183 307.458 411.11V326.75" stroke="#21005D" stroke-width="10" stroke-miterlimit="16"/>
</g>
<path d="M455 158L473 118H583.5L602 149L677.5 158L687 118L745.5 107.5L758 158L814.5 149L824.5 112H875L893.5 149H1105L1135 188V287.5H496V193.5L455 158Z" fill="white"/>
<path d="M551.4 276.2H510.6V165H480V133.4H582V165H551.4V276.2Z" fill="black"/>
<path d="M638.866 163.6C651.799 163.6 661.932 167.067 669.266 174C676.732 180.933 680.466 190.8 680.466 203.6V276.2H652.666L644.866 261.6H644.066C641.132 265.467 638.132 268.667 635.066 271.2C631.999 273.6 628.466 275.333 624.466 276.4C620.466 277.6 615.599 278.2 609.866 278.2C603.866 278.2 598.466 276.933 593.666 274.4C588.866 271.733 585.066 267.8 582.266 262.6C579.599 257.267 578.266 250.533 578.266 242.4C578.266 230.533 582.132 221.733 589.866 216C597.599 210.133 608.599 206.933 622.866 206.4L639.866 205.8V204.2C639.866 199.267 638.866 195.8 636.866 193.8C634.999 191.667 632.399 190.6 629.066 190.6C625.466 190.6 621.066 191.4 615.866 193C610.666 194.467 605.466 196.4 600.266 198.8L589.266 173.6C595.666 170.267 602.866 167.8 610.866 166.2C618.999 164.467 628.332 163.6 638.866 163.6ZM633.466 227.2C628.266 227.467 624.532 228.733 622.266 231C620.132 233.133 619.066 236.2 619.066 240.2C619.066 243.933 619.866 246.733 621.466 248.6C623.066 250.333 625.132 251.2 627.666 251.2C630.999 251.2 633.932 249.733 636.466 246.8C638.999 243.867 640.266 240.067 640.266 235.4V226.8L633.466 227.2Z" fill="black"/>
<path d="M743.006 184C743.006 188.533 742.806 193.533 742.406 199C742.006 204.467 741.406 209.467 740.606 214H741.606C742.273 212.667 743.073 211.067 744.006 209.2C745.073 207.333 746.273 205.333 747.606 203.2C748.94 201.067 750.34 198.933 751.806 196.8L772.406 165.6H817.206L783.606 212.6L819.206 276.2H773.406L754.406 236.6L743.006 246V276.2H702.406V124.2H743.006V184Z" fill="black"/>
<path d="M870.936 165.6V276.2H830.536V165.6H870.936ZM850.936 121C856.669 121 861.603 122.133 865.736 124.4C870.003 126.667 872.136 131.2 872.136 138C872.136 144.533 870.003 149 865.736 151.4C861.603 153.667 856.669 154.8 850.936 154.8C845.069 154.8 840.069 153.667 835.936 151.4C831.803 149 829.736 144.533 829.736 138C829.736 131.2 831.803 126.667 835.936 124.4C840.069 122.133 845.069 121 850.936 121Z" fill="black"/>
<path d="M962.417 163.6C973.084 163.6 981.817 166.8 988.617 173.2C995.551 179.6 999.017 189.933 999.017 204.2V276.2H958.617V215.8C958.617 208.467 957.817 202.933 956.217 199.2C954.617 195.467 951.951 193.6 948.217 193.6C942.484 193.6 938.684 196.533 936.817 202.4C934.951 208.267 934.017 216.733 934.017 227.8V276.2H893.617V165.6H923.817L929.417 180.2H930.617C932.884 176.733 935.484 173.8 938.417 171.4C941.351 168.867 944.751 166.933 948.617 165.6C952.617 164.267 957.217 163.6 962.417 163.6Z" fill="black"/>
<path d="M1076.56 163.6C1089.49 163.6 1099.63 167.067 1106.96 174C1114.43 180.933 1118.16 190.8 1118.16 203.6V276.2H1090.36L1082.56 261.6H1081.76C1078.83 265.467 1075.83 268.667 1072.76 271.2C1069.69 273.6 1066.16 275.333 1062.16 276.4C1058.16 277.6 1053.29 278.2 1047.56 278.2C1041.56 278.2 1036.16 276.933 1031.36 274.4C1026.56 271.733 1022.76 267.8 1019.96 262.6C1017.29 257.267 1015.96 250.533 1015.96 242.4C1015.96 230.533 1019.83 221.733 1027.56 216C1035.29 210.133 1046.29 206.933 1060.56 206.4L1077.56 205.8V204.2C1077.56 199.267 1076.56 195.8 1074.56 193.8C1072.69 191.667 1070.09 190.6 1066.76 190.6C1063.16 190.6 1058.76 191.4 1053.56 193C1048.36 194.467 1043.16 196.4 1037.96 198.8L1026.96 173.6C1033.36 170.267 1040.56 167.8 1048.56 166.2C1056.69 164.467 1066.03 163.6 1076.56 163.6ZM1071.16 227.2C1065.96 227.467 1062.23 228.733 1059.96 231C1057.83 233.133 1056.76 236.2 1056.76 240.2C1056.76 243.933 1057.56 246.733 1059.16 248.6C1060.76 250.333 1062.83 251.2 1065.36 251.2C1068.69 251.2 1071.63 249.733 1074.16 246.8C1076.69 243.867 1077.96 240.067 1077.96 235.4V226.8L1071.16 227.2Z" fill="black"/>
<defs>
<clipPath id="clip0_1_1022">
<rect width="400" height="400" rx="80" fill="white"/>
</clipPath>
</defs>
</svg>
